<svg width="45" height="40" viewBox="0 -1 45 45" fill="none" xmlns="http://www.w3.org/2000/svg">
    <g clip-path="url(#clip0_231_7370)">
        <g transform="translate(12 0)">
            <path d="M20 24H18V22C18 21.2044 17.6839 20.4413 17.1213 19.8787C16.5587 19.3161 15.7956 19 15 19H9C8.20435 19 7.44129 19.3161 6.87868 19.8787C6.31607 20.4413 6 21.2044 6 22V24H4V22C4 20.6739 4.52678 19.4021 5.46447 18.4645C6.40215 17.5268 7.67392 17 9 17H15C16.3261 17 17.5979 17.5268 18.5355 18.4645C19.4732 19.4021 20 20.6739 20 22V24ZM12 15C11.2121 15 10.4319 14.8448 9.7039 14.5433C8.97595 14.2417 8.31451 13.7998 7.75736 13.2426C7.20021 12.6855 6.75825 12.0241 6.45672 11.2961C6.15519 10.5681 6 9.78793 6 9C6 8.21207 6.15519 7.43185 6.45672 6.7039C6.75825 5.97595 7.20021 5.31451 7.75736 4.75736C8.31451 4.20021 8.97595 3.75825 9.7039 3.45672C10.4319 3.15519 11.2121 3 12 3C13.5913 3 15.1174 3.63214 16.2426 4.75736C17.3679 5.88258 18 7.4087 18 9C18 10.5913 17.3679 12.1174 16.2426 13.2426C15.1174 14.3679 13.5913 15 12 15ZM12 13C13.0609 13 14.0783 12.5786 14.8284 11.8284C15.5786 11.0783 16 10.0609 16 9C16 7.93913 15.5786 6.92172 14.8284 6.17157C14.0783 5.42143 13.0609 5 12 5C10.9391 5 9.92172 5.42143 9.17157 6.17157C8.42143 6.92172 8 7.93913 8 9C8 10.0609 8.42143 11.0783 9.17157 11.8284C9.92172 12.5786 10.9391 13 12 13Z" fill="#767676"/>
        </g>
        <g transform="translate(0 3)">
            <text x="50%" y="39" font-size="15" fill="#767676" text-anchor="middle">내 정보</text>
        </g>
    </g>
    <defs>
        <clipPath id="clip0_231_7370">
            <rect width="45" height="50" fill="white"/>
        </clipPath>
    </defs>
</svg>